<?xml version="1.0" standalone="no"?>
<!DOCTYPE svg PUBLIC "-//W3C//DTD SVG 20010904//EN"
 "http://www.w3.org/TR/2001/REC-SVG-20010904/DTD/svg10.dtd">
<svg version="1.0" xmlns="http://www.w3.org/2000/svg"
 width="180.000000pt" height="180.000000pt" viewBox="0 0 180.000000 180.000000"
 preserveAspectRatio="xMidYMid meet">
<metadata>
Created by potrace 1.11, written by Peter Selinger 2001-2013
</metadata>
<g transform="translate(0.000000,180.000000) scale(0.100000,-0.100000)"
fill="#000000" stroke="none">
<path d="M1445 1727 c-16 -13 -46 -29 -65 -37 -19 -7 -69 -30 -110 -50 -41
-20 -88 -40 -104 -44 -29 -7 -76 -51 -76 -71 0 -5 -5 -3 -10 5 -8 13 -12 13
-32 1 -13 -8 -45 -26 -73 -39 -27 -14 -55 -31 -62 -37 -6 -7 -35 -27 -65 -46
-29 -18 -54 -36 -56 -39 -1 -3 -18 -30 -38 -59 -20 -32 -37 -72 -41 -99 l-6
-44 -18 23 c-19 25 -21 25 -81 -32 -63 -59 -128 -181 -129 -243 0 -35 -2 -38
-9 -18 -12 29 -34 28 -59 -4 -22 -28 -60 -102 -66 -130 -2 -11 -14 -44 -26
-74 -12 -30 -31 -77 -41 -104 -12 -30 -21 -80 -23 -131 -3 -66 -8 -91 -28
-122 -13 -21 -54 -90 -90 -154 -98 -171 -90 -200 29 -101 67 57 70 61 109 167
30 80 45 109 59 111 10 1 41 18 70 37 28 18 80 50 116 70 42 24 102 73 169
141 93 94 103 107 90 122 -13 16 -12 16 8 6 70 -38 161 11 214 113 12 22 39
57 61 78 23 23 46 58 55 85 16 48 70 132 85 132 4 0 46 38 92 84 46 47 97 91
113 100 53 28 97 71 90 89 -5 14 -15 16 -49 12 -42 -6 -42 -6 -18 9 14 8 40
15 58 16 39 0 85 44 133 127 16 29 44 61 62 72 18 11 45 32 60 46 48 46 26 55
-132 55 -127 0 -138 -2 -166 -23z m234 -16 c11 -7 7 -16 -21 -43 -19 -18 -46
-53 -61 -78 -35 -63 -75 -97 -131 -114 -46 -14 -86 -40 -86 -57 0 -5 12 -15
26 -22 l27 -14 -28 -19 c-16 -10 -67 -57 -115 -104 -48 -47 -109 -106 -136
-132 -27 -27 -57 -48 -66 -48 -24 0 -30 -16 -13 -30 23 -19 18 -42 -22 -91
-21 -25 -59 -76 -86 -113 -60 -84 -98 -105 -162 -88 -79 21 -84 17 -60 -40 10
-26 -121 -158 -222 -224 -98 -63 -141 -86 -154 -82 -14 5 51 98 151 217 76 91
841 864 925 935 34 30 27 45 -13 25 -56 -29 -105 -71 -352 -304 -47 -45 -146
-136 -220 -204 -74 -68 -142 -131 -150 -140 -9 -9 -43 -41 -75 -71 -91 -83
-262 -292 -310 -376 -18 -31 -35 -53 -37 -48 -22 38 72 324 132 401 20 25 26
22 46 -25 7 -18 18 -31 22 -28 5 3 12 37 16 75 13 128 64 233 134 273 l30 18
14 -33 c8 -17 19 -43 25 -57 12 -28 10 -36 32 112 13 92 58 161 147 223 38 26
91 57 118 68 l48 21 18 -24 17 -23 12 34 c12 34 57 89 74 89 5 0 37 14 71 31
33 17 85 40 114 50 29 10 71 29 95 43 36 22 54 26 127 26 47 0 91 -4 99 -9z"/>
</g>
</svg>
